<svg xmlns="http://www.w3.org/2000/svg" viewBox="0 0 132.5 8.38"><defs><style>.cls-1{fill:#fff;}.cls-2{fill:none;stroke:#fff;stroke-miterlimit:10;}</style></defs><title>Asset 2</title><g id="Layer_2" data-name="Layer 2"><g id="Layer_1-2" data-name="Layer 1"><path class="cls-1" d="M.46,5.88a.16.16,0,0,1,.08-.1.11.11,0,0,1,.11,0,5.73,5.73,0,0,0,1,.36,4.18,4.18,0,0,0,1.24.17q1,0,1-.48c0-.23-.4-.46-1.2-.68a6.27,6.27,0,0,1-1-.37,3.34,3.34,0,0,1-.81-.53,2.27,2.27,0,0,1-.56-.72,2,2,0,0,1-.21-.94,2.3,2.3,0,0,1,.24-1A2.44,2.44,0,0,1,1,.73,3.47,3.47,0,0,1,2.08.19,4.85,4.85,0,0,1,3.51,0,7.13,7.13,0,0,1,4.92.12,5.54,5.54,0,0,1,6,.44.13.13,0,0,1,6,.61l-.5,1.72a.13.13,0,0,1-.2.09,5.9,5.9,0,0,0-.75-.25A3.72,3.72,0,0,0,3.47,2a1.64,1.64,0,0,0-.65.1.33.33,0,0,0-.22.31c0,.16.11.28.34.37S3.54,3,4,3.18a4,4,0,0,1,1.76,1,2.2,2.2,0,0,1,.57,1.55,2.46,2.46,0,0,1-.21,1,2.39,2.39,0,0,1-.65.85,3.23,3.23,0,0,1-1.14.59,5.48,5.48,0,0,1-1.67.23,6.81,6.81,0,0,1-.78-.05,7.34,7.34,0,0,1-.73-.13L.56,8a3.68,3.68,0,0,1-.47-.2A.12.12,0,0,1,0,7.75a.13.13,0,0,1,0-.08Z"/><path class="cls-1" d="M9.3,2.2H7.23c-.09,0-.13-.05-.13-.14V.28c0-.1,0-.15.13-.15h6.65c.09,0,.14,0,.14.15V2.06a.13.13,0,0,1-.14.14h-2.1V8.09c0,.09,0,.14-.15.14H9.44a.13.13,0,0,1-.14-.14Z"/><path class="cls-1" d="M16.29,6.32c-.07.31-.15.61-.24.91s-.16.6-.23.89a.12.12,0,0,1-.14.11H13.37a.14.14,0,0,1-.12-.06.13.13,0,0,1,0-.12L15.71.23a.12.12,0,0,1,.13-.1h3a.11.11,0,0,1,.13.1l2.63,7.82a.13.13,0,0,1,0,.12.12.12,0,0,1-.12.06H19a.11.11,0,0,1-.07,0,.12.12,0,0,1-.06-.08l-.56-1.8Zm1.64-1.87-.18-.6a5.26,5.26,0,0,0-.18-.6c0-.13-.08-.26-.14-.41s-.09-.28-.13-.42v0a.45.45,0,0,1,0-.11s0,0,0,0a.54.54,0,0,0,0-.1l0,.14q0,.09,0,.15c0,.13-.07.26-.1.39a3.58,3.58,0,0,1-.11.35h0c-.06.23-.11.43-.16.6s-.1.37-.17.6Z"/><path class="cls-1" d="M22.68.37c0-.07,0-.11.12-.13.31,0,.7-.09,1.17-.13s1,0,1.62,0a7.37,7.37,0,0,1,1.7.16,3,3,0,0,1,1.15.49,2,2,0,0,1,.65.74,2.45,2.45,0,0,1,.23,1.08,1.81,1.81,0,0,1-.12.67,2.26,2.26,0,0,1-.7,1,1.94,1.94,0,0,1-.44.27,1.72,1.72,0,0,1,.52.55,4.94,4.94,0,0,1,.37.8c.06.18.12.37.18.58l.18.6c.06.23.12.44.18.65a1.51,1.51,0,0,0,.14.41.1.1,0,0,1,0,.13.14.14,0,0,1-.13.06H27.28a.14.14,0,0,1-.13-.07,3.13,3.13,0,0,1-.25-.61,11.25,11.25,0,0,1-.36-1.21,2.88,2.88,0,0,0-.19-.53,1.07,1.07,0,0,0-.23-.3.86.86,0,0,0-.32-.15,1.76,1.76,0,0,0-.42,0h-.25V8.09a.13.13,0,0,1-.14.14H22.83c-.1,0-.15-.05-.15-.14ZM25.13,3.5h.51a1.66,1.66,0,0,0,.9-.21.68.68,0,0,0,.33-.59.64.64,0,0,0-.27-.57,1.41,1.41,0,0,0-.77-.19h-.45a.9.9,0,0,0-.25,0Z"/><path class="cls-1" d="M30.57.37a.16.16,0,0,1,0-.08l.08,0,.47-.07L31.8.12l.77,0,.79,0,.83,0,.66.05c.2,0,.39.06.55.1a4.2,4.2,0,0,1,.5.17,2.07,2.07,0,0,1,.9.66,1.71,1.71,0,0,1,.38,1.12,1.92,1.92,0,0,1-.23.91,1.92,1.92,0,0,1-.84.73,2,2,0,0,1,1.33,1.94,2.08,2.08,0,0,1-.28,1.09,2.47,2.47,0,0,1-.75.79,3.65,3.65,0,0,1-1.31.51,10.49,10.49,0,0,1-2.16.18c-.55,0-1,0-1.38,0a8.66,8.66,0,0,1-.88-.11s-.05,0-.08,0a.16.16,0,0,1,0-.09ZM33,3.1h.32a2.38,2.38,0,0,0,1-.17.51.51,0,0,0,.32-.47c0-.37-.34-.55-1-.55h-.39l-.25,0Zm0,3.34.24,0h.32a2.63,2.63,0,0,0,.49,0,1,1,0,0,0,.4-.14A.78.78,0,0,0,34.75,6a.64.64,0,0,0,.1-.37.63.63,0,0,0-.4-.61,2.18,2.18,0,0,0-1-.15l-.43,0Z"/><path class="cls-1" d="M41,.13c.09,0,.14,0,.14.15V4.52a2.65,2.65,0,0,0,.31,1.37,1.08,1.08,0,0,0,1,.51,1.11,1.11,0,0,0,1-.49,2.65,2.65,0,0,0,.31-1.39V.28c0-.1,0-.15.14-.15h2.2c.09,0,.13,0,.13.15V4.46a3.92,3.92,0,0,1-1,3,4,4,0,0,1-2.87,1,5,5,0,0,1-1.56-.23,2.75,2.75,0,0,1-1.15-.72,3,3,0,0,1-.72-1.23,5.63,5.63,0,0,1-.25-1.8V.28c0-.1,0-.15.13-.15Z"/><path class="cls-1" d="M54.46,7.84a.1.1,0,0,1,0,.09L54.38,8a4,4,0,0,1-.86.25,6.49,6.49,0,0,1-1.42.14A6.09,6.09,0,0,1,50,8.05a4.1,4.1,0,0,1-1.47-.89,3.52,3.52,0,0,1-.86-1.3,4.26,4.26,0,0,1-.28-1.55,4.32,4.32,0,0,1,.38-1.86,3.91,3.91,0,0,1,1-1.35A4.34,4.34,0,0,1,50.33.28,6,6,0,0,1,52.2,0a8.41,8.41,0,0,1,1.41.11,2.94,2.94,0,0,1,.91.29.13.13,0,0,1,.07.16l-.45,1.7a.24.24,0,0,1-.08.09.13.13,0,0,1-.12,0,3.22,3.22,0,0,0-.7-.22,4.44,4.44,0,0,0-1-.09,2.9,2.9,0,0,0-.89.13,2,2,0,0,0-.74.39,1.89,1.89,0,0,0-.51.66,2.1,2.1,0,0,0-.19.94,2.06,2.06,0,0,0,.62,1.55,2.43,2.43,0,0,0,1.77.6,4.37,4.37,0,0,0,.88-.08,3.5,3.5,0,0,0,.7-.18.13.13,0,0,1,.12,0,.18.18,0,0,1,.07.11Z"/><path class="cls-1" d="M55.71.28c0-.1,0-.15.14-.15H58a.13.13,0,0,1,.15.15l0,2.82.13-.18.12-.17s0-.06,0-.07L60.2.19a.17.17,0,0,1,.12-.06h2.77a.13.13,0,0,1,.13.09.12.12,0,0,1,0,.14L60.51,3.59l1.41,2.22c.48.73.94,1.47,1.41,2.22a.14.14,0,0,1,0,.14.14.14,0,0,1-.13.06H60.63a.13.13,0,0,1-.12-.07l-1.78-3-.28.33-.29.34V8.09c0,.09,0,.14-.15.14H55.85a.13.13,0,0,1-.14-.14Z"/><path class="cls-1" d="M64.32,5.88a.21.21,0,0,1,.08-.1.13.13,0,0,1,.12,0,5.13,5.13,0,0,0,1,.36,4.07,4.07,0,0,0,1.23.17q1,0,1-.48c0-.23-.4-.46-1.2-.68a6.15,6.15,0,0,1-1-.37,3.61,3.61,0,0,1-.82-.53,2.42,2.42,0,0,1-.56-.72,2.16,2.16,0,0,1-.2-.94,2.3,2.3,0,0,1,.24-1,2.44,2.44,0,0,1,.69-.82A3.42,3.42,0,0,1,65.94.19,4.9,4.9,0,0,1,67.37,0a7.13,7.13,0,0,1,1.41.12,5.32,5.32,0,0,1,1,.32c.08,0,.11.09.08.17l-.5,1.72a.13.13,0,0,1-.19.09,7.24,7.24,0,0,0-.75-.25A3.77,3.77,0,0,0,67.34,2a1.61,1.61,0,0,0-.65.1.34.34,0,0,0-.23.31c0,.16.12.28.35.37a11.41,11.41,0,0,0,1.08.37,4.11,4.11,0,0,1,1.76,1,2.2,2.2,0,0,1,.57,1.55,2.46,2.46,0,0,1-.21,1,2.31,2.31,0,0,1-.66.85,3.07,3.07,0,0,1-1.14.59,5.43,5.43,0,0,1-1.67.23,6.81,6.81,0,0,1-.78-.05c-.25,0-.49-.08-.72-.13L64.42,8a4.43,4.43,0,0,1-.47-.2.16.16,0,0,1-.07-.07.08.08,0,0,1,0-.08Z"/><path class="cls-1" d="M76.29,8.23a.13.13,0,0,1-.08,0s0,0,0-.06L73.42.32a.15.15,0,0,1,0-.13.14.14,0,0,1,.12-.06H76a.11.11,0,0,1,.12.1l1,3,.18.55c.06.16.11.32.16.49s.1.34.15.53.1.4.16.65c.1-.38.2-.76.3-1.12s.21-.7.32-1l.5-1.54c.16-.52.33-1,.49-1.53a.11.11,0,0,1,.13-.1h2.3a.12.12,0,0,1,.12.06.15.15,0,0,1,0,.13L79,8.14,79,8.2a.13.13,0,0,1-.08,0Z"/><path class="cls-1" d="M85.07.13c.09,0,.13,0,.13.15V8.09c0,.09,0,.14-.13.14H82.88a.13.13,0,0,1-.14-.14V.28c0-.1.05-.15.14-.15Z"/><path class="cls-1" d="M86.26.28c0-.1,0-.15.14-.15h2.2c.09,0,.13,0,.13.15V6.12H92c.1,0,.15,0,.15.14V8.09c0,.09-.05.14-.15.14H86.4a.13.13,0,0,1-.14-.14Z"/><path class="cls-1" d="M93.12.28a.13.13,0,0,1,.15-.15h2.19c.09,0,.14,0,.14.15V6.12h3.24a.13.13,0,0,1,.14.14V8.09a.13.13,0,0,1-.14.14H93.27c-.1,0-.15-.05-.15-.14Z"/><path class="cls-1" d="M102.54,6.32c-.07.31-.15.61-.23.91s-.16.6-.23.89a.13.13,0,0,1-.15.11h-2.3a.12.12,0,0,1-.12-.06.13.13,0,0,1,0-.12L102,.23a.11.11,0,0,1,.13-.1h3a.12.12,0,0,1,.13.1l2.63,7.82a.13.13,0,0,1,0,.12.11.11,0,0,1-.11.06h-2.44a.13.13,0,0,1-.08,0,.09.09,0,0,1,0-.08l-.57-1.8Zm1.65-1.87q-.1-.3-.18-.6t-.18-.6c0-.13-.09-.26-.14-.41s-.1-.28-.14-.42v0a.39.39,0,0,0,0-.11s0,0,0,0l0-.1,0,.14q0,.09,0,.15l-.09.39c0,.12-.07.24-.11.35h0q-.09.34-.15.6c0,.17-.11.37-.17.6Z"/><path class="cls-1" d="M116,7.68a.12.12,0,0,1-.08.12c-.17.06-.37.11-.6.17s-.49.12-.76.17-.55.1-.85.13a8.49,8.49,0,0,1-.88.05A7.18,7.18,0,0,1,110.63,8a3.94,3.94,0,0,1-1.51-.88,3.55,3.55,0,0,1-.88-1.27,3.92,3.92,0,0,1-.3-1.54,4.12,4.12,0,0,1,.39-1.84,3.9,3.9,0,0,1,1.07-1.34A4.84,4.84,0,0,1,111,.32a7.18,7.18,0,0,1,2-.27,7.56,7.56,0,0,1,1.6.14,5,5,0,0,1,1,.3.14.14,0,0,1,.07.17l-.46,1.72s0,.06-.08.08a.13.13,0,0,1-.12,0,5.09,5.09,0,0,0-.85-.25,6.3,6.3,0,0,0-1.27-.11,3.48,3.48,0,0,0-.93.12,2.29,2.29,0,0,0-.77.37,1.61,1.61,0,0,0-.52.63,2,2,0,0,0-.2.91,2.14,2.14,0,0,0,.18.89,1.89,1.89,0,0,0,.49.69,2.35,2.35,0,0,0,.76.43,2.86,2.86,0,0,0,1,.16h.39a1.55,1.55,0,0,0,.28,0v-1h-1.07c-.09,0-.13-.05-.13-.14V3.41c0-.1,0-.15.13-.15h3.36c.09,0,.13.05.13.15Z"/><path class="cls-1" d="M122.73,5c0,.1,0,.15-.13.15h-3V6.19H123a.12.12,0,0,1,.13.13V8.09a.12.12,0,0,1-.13.14h-5.75c-.09,0-.13-.05-.13-.14V.28c0-.1,0-.15.13-.15h5.57c.09,0,.14,0,.14.15V2c0,.09-.05.13-.14.13h-3.23V3.1h3a.12.12,0,0,1,.13.13Z"/><path class="cls-2" d="M132.26,3.49l-3.48-2a.17.17,0,0,0-.14,0l-3.48,2"/><polygon class="cls-1" points="128.71 3.49 129.34 4.69 130.74 4.89 129.73 5.82 129.97 7.14 128.71 6.52 127.45 7.14 127.69 5.82 126.68 4.89 128.08 4.69 128.71 3.49"/></g></g></svg>