<svg xmlns="http://www.w3.org/2000/svg" viewBox="0 0 327.98 20.96"><defs><style>.cls-1{fill:#006533;}.cls-2{fill:none;stroke:#006533;stroke-miterlimit:10;stroke-width:2.48px;}</style></defs><title>Asset 1</title><g id="Layer_2" data-name="Layer 2"><g id="Layer_1-2" data-name="Layer 1"><g id="Layer_1-2-2" data-name="Layer 1-2"><path class="cls-1" d="M1.15,14.56a.39.39,0,0,1,.2-.25.26.26,0,0,1,.27,0,14.67,14.67,0,0,0,2.48.89,10.63,10.63,0,0,0,3.07.42c1.65,0,2.47-.4,2.47-1.19,0-.57-1-1.14-3-1.68a15.61,15.61,0,0,1-2.47-.92,8.09,8.09,0,0,1-2-1.31A5.58,5.58,0,0,1,.81,8.74,4.94,4.94,0,0,1,.29,6.41,5.72,5.72,0,0,1,.88,3.94,6,6,0,0,1,2.49,1.81,8.7,8.7,0,0,1,5.16.47,12.13,12.13,0,0,1,8.7,0a17,17,0,0,1,3.49.3,14,14,0,0,1,2.68.79.33.33,0,0,1,0,.42L13.63,5.77a.33.33,0,0,1-.37.27.35.35,0,0,1-.13,0,14.88,14.88,0,0,0-1.85-.62A9.37,9.37,0,0,0,8.6,5,4,4,0,0,0,7,5.2.81.81,0,0,0,6.45,6c0,.39.27.69.84.91s1.49.55,2.63,1a9.83,9.83,0,0,1,4.35,2.48,5.41,5.41,0,0,1,1.41,3.83,6,6,0,0,1-.52,2.48,5.91,5.91,0,0,1-1.61,2.1,7.91,7.91,0,0,1-2.82,1.46,13.43,13.43,0,0,1-4.13.57,15.51,15.51,0,0,1-1.93-.12c-.61-.08-1.21-.19-1.81-.32L1.4,19.8a9.17,9.17,0,0,1-1.16-.49A.29.29,0,0,1,0,19.18.21.21,0,0,1,0,19Z"/><path class="cls-1" d="M23,5.45H17.91c-.22,0-.32-.13-.32-.35V.69c0-.24,0-.37.32-.37H34.37c.22,0,.35,0,.35.37V5.1a.33.33,0,0,1-.3.35H29.17V20c0,.22,0,.34-.37.34H23.38a.32.32,0,0,1-.35-.29V5.45Z"/><path class="cls-1" d="M40.33,15.64c-.17.77-.37,1.51-.59,2.26s-.4,1.48-.57,2.2a.3.3,0,0,1-.32.28H33.11a.33.33,0,0,1-.3-.15.3.3,0,0,1,0-.29L38.9.57a.3.3,0,0,1,.32-.25h7.43A.27.27,0,0,1,47,.54v0l6.51,19.36a.3.3,0,0,1,0,.29.29.29,0,0,1-.3.15H47a.25.25,0,0,1-.17,0,.28.28,0,0,1-.15-.2l-1.39-4.45ZM44.39,11,44,9.53a12.63,12.63,0,0,0-.45-1.48,3.22,3.22,0,0,0-.34-1,9.54,9.54,0,0,1-.33-1h0a1.22,1.22,0,0,1,0-.27h0a1,1,0,0,0,0-.25v.72a4.82,4.82,0,0,1-.24,1,8,8,0,0,1-.28.87h0c-.14.57-.27,1.07-.39,1.49s-.25.91-.42,1.48Z"/><path class="cls-1" d="M56.15.92c0-.18,0-.27.3-.32.76,0,1.73-.23,2.89-.33s2.48,0,4,0a18.55,18.55,0,0,1,4.21.4,7.5,7.5,0,0,1,2.85,1.21A4.94,4.94,0,0,1,72,3.71a5.91,5.91,0,0,1,.57,2.68,4.5,4.5,0,0,1-.29,1.66,5.59,5.59,0,0,1-1.74,2.47,4.64,4.64,0,0,1-1.08.67,4.27,4.27,0,0,1,1.28,1.36,11.87,11.87,0,0,1,.92,2c.15.45.3.92.44,1.44l.45,1.48c.15.57.3,1.09.45,1.61a3.65,3.65,0,0,0,.34,1,.26.26,0,0,1,0,.33.33.33,0,0,1-.32.14H67.54a.34.34,0,0,1-.33-.17,8,8,0,0,1-.62-1.51,28.48,28.48,0,0,1-.89-3,6.83,6.83,0,0,0-.47-1.31,2.45,2.45,0,0,0-.57-.75,2.21,2.21,0,0,0-.79-.37,4.52,4.52,0,0,0-1,0h-.62V20a.31.31,0,0,1-.29.34h-5.4c-.25,0-.37-.12-.37-.34Zm6.06,7.74h1.27a3.93,3.93,0,0,0,2.22-.52,1.65,1.65,0,0,0,.82-1.46,1.58,1.58,0,0,0-.67-1.41A3.53,3.53,0,0,0,64,4.8H62.83a2.15,2.15,0,0,0-.62,0Z"/><path class="cls-1" d="M75.68.92a.34.34,0,0,1,0-.2h.2L77,.55,78.72.3h5.92l1.63.12a5.4,5.4,0,0,1,1.36.25,9,9,0,0,1,1.24.42A5.18,5.18,0,0,1,91.1,2.72,4.31,4.31,0,0,1,92,5.5a4.79,4.79,0,0,1-.57,2.25,4.81,4.81,0,0,1-2.08,1.81,4.94,4.94,0,0,1,3.29,4.8A5.17,5.17,0,0,1,92,17.05a6.11,6.11,0,0,1-1.86,2,8.87,8.87,0,0,1-3.24,1.26,25.9,25.9,0,0,1-5.35.45H78.13c-.73-.06-1.46-.15-2.18-.27h-.2a.45.45,0,0,1,0-.23Zm6,6.75h.79A5.85,5.85,0,0,0,85,7.25a1.25,1.25,0,0,0,.79-1.16c0-.92-.84-1.36-2.47-1.36H81.69Zm0,8.27h1.39a6.12,6.12,0,0,0,1.21,0,2.35,2.35,0,0,0,1-.35,1.88,1.88,0,0,0,.74-.74,1.69,1.69,0,0,0-.74-2.42,5.22,5.22,0,0,0-2.47-.37H81.74Z"/><path class="cls-1" d="M101.49.32c.23,0,.35,0,.35.37v10.5a6.55,6.55,0,0,0,.77,3.39,2.65,2.65,0,0,0,2.47,1.26,2.75,2.75,0,0,0,2.48-1.21,6.55,6.55,0,0,0,.76-3.44V.69c0-.24,0-.37.35-.37h5.45c.22,0,.32,0,.32.37V11A9.74,9.74,0,0,1,112,18.47a9.93,9.93,0,0,1-7.1,2.47,12.32,12.32,0,0,1-3.86-.57,6.92,6.92,0,0,1-2.85-1.78,7.44,7.44,0,0,1-1.78-3,13.79,13.79,0,0,1-.62-4.46V.69c0-.24,0-.37.32-.37Z"/><path class="cls-1" d="M134.81,19.41a.28.28,0,0,1,0,.22l-.2.17a9.29,9.29,0,0,1-2.13.62,15.9,15.9,0,0,1-3.51.35,15.32,15.32,0,0,1-5.2-.84,10,10,0,0,1-3.64-2.21A8.77,8.77,0,0,1,118,14.51a10.52,10.52,0,0,1-.69-3.84,10.68,10.68,0,0,1,.94-4.6,9.83,9.83,0,0,1,2.47-3.35,10.89,10.89,0,0,1,3.87-2A15,15,0,0,1,129.21,0a21.42,21.42,0,0,1,3.49.27A7.46,7.46,0,0,1,135,1a.33.33,0,0,1,.17.4L134,5.6a.7.7,0,0,1-.2.22.32.32,0,0,1-.3,0,8.1,8.1,0,0,0-1.73-.55,11.5,11.5,0,0,0-2.48-.22,7.15,7.15,0,0,0-2.2.32,4.9,4.9,0,0,0-1.83,1A4.56,4.56,0,0,0,124,8a5.07,5.07,0,0,0-.47,2.33,5,5,0,0,0,1.53,3.83,6,6,0,0,0,4.38,1.49,10.66,10.66,0,0,0,2.18-.2,9.34,9.34,0,0,0,1.73-.44.32.32,0,0,1,.3,0,.41.41,0,0,1,.17.27Z"/><path class="cls-1" d="M137.9.69c0-.24,0-.37.35-.37h5.32a.32.32,0,0,1,.37.27.17.17,0,0,1,0,.1v7l.32-.44.3-.42V6.64L149,.47a.46.46,0,0,1,.3-.15h6.86a.34.34,0,0,1,.32.23.3.3,0,0,1,0,.34l-6.71,8,3.49,5.49c1.19,1.81,2.33,3.64,3.49,5.5a.34.34,0,0,1,0,.34.34.34,0,0,1-.32.15h-6.36a.31.31,0,0,1-.3-.17l-4.4-7.43-.7.82-.72.84V20c0,.22,0,.34-.37.34h-5.34a.32.32,0,0,1-.35-.29V.69Z"/><path class="cls-1" d="M159.21,14.56a.5.5,0,0,1,.2-.25.32.32,0,0,1,.3,0,12.78,12.78,0,0,0,2.47.89,10.17,10.17,0,0,0,3,.42c1.65,0,2.47-.4,2.47-1.19,0-.57-1-1.14-3-1.68a14.37,14.37,0,0,1-2.47-.92,8.5,8.5,0,0,1-2-1.31,5.88,5.88,0,0,1-1.39-1.78,5.34,5.34,0,0,1-.5-2.33,5.73,5.73,0,0,1,.6-2.47,5.88,5.88,0,0,1,1.71-2A8.45,8.45,0,0,1,163.22.47,12.09,12.09,0,0,1,166.76,0a17,17,0,0,1,3.49.3,13.5,13.5,0,0,1,2.48.79c.19,0,.27.22.19.42l-1.23,4.26a.34.34,0,0,1-.38.26.25.25,0,0,1-.09,0c-.61-.24-1.23-.44-1.86-.62A9.36,9.36,0,0,0,166.69,5a4,4,0,0,0-1.61.25.84.84,0,0,0-.57.77c0,.39.29.69.86.91a28.23,28.23,0,0,0,2.68.92,10.22,10.22,0,0,1,4.35,2.47,5.45,5.45,0,0,1,1.41,3.84,5.83,5.83,0,0,1-.52,2.47,5.72,5.72,0,0,1-1.63,2.11,7.6,7.6,0,0,1-2.82,1.46,13.78,13.78,0,0,1-4.13.57,17.7,17.7,0,0,1-1.93-.13,8.08,8.08,0,0,1-1.79-.32l-1.53-.47a10.9,10.9,0,0,1-1.16-.49.39.39,0,0,1-.18-.18.21.21,0,0,1,0-.19Z"/><path class="cls-1" d="M188.84,20.37a.34.34,0,0,1-.2,0v-.15L181.73.79a.44.44,0,0,1,0-.32.38.38,0,0,1,.3-.15h6.09a.29.29,0,0,1,.3.25h0L190.89,8l.45,1.36c.15.39.27.79.39,1.21s.25.84.37,1.31.25,1,.4,1.61l.74-2.77c.25-.89.52-1.73.8-2.48l1.23-3.81c.4-1.28.82-2.47,1.22-3.78a.28.28,0,0,1,.29-.26h5.72a.29.29,0,0,1,.3.15.36.36,0,0,1,0,.32l-7.25,19.28v.15a.34.34,0,0,1-.2,0Z"/><path class="cls-1" d="M210.57.32c.22,0,.32,0,.32.37V20c0,.22,0,.34-.32.34h-5.42a.32.32,0,0,1-.35-.29V.69a.33.33,0,0,1,.35-.37Z"/><path class="cls-1" d="M213.51.69c0-.24,0-.37.35-.37h5.45c.22,0,.32,0,.32.37V15.15h8.09c.25,0,.37,0,.37.35V20c0,.22-.12.34-.37.34H213.86a.32.32,0,0,1-.35-.29V.69Z"/><path class="cls-1" d="M230.49.69a.32.32,0,0,1,.27-.37h5.52c.23,0,.35,0,.35.37V15.15h8a.32.32,0,0,1,.35.29V20a.32.32,0,0,1-.3.34H230.86c-.24,0-.37-.12-.37-.34Z"/><path class="cls-1" d="M253.81,15.64c-.18.77-.37,1.51-.57,2.26s-.4,1.48-.57,2.2a.32.32,0,0,1-.36.27h-5.7a.29.29,0,0,1-.3-.15.3.3,0,0,1,0-.29L252.47.57a.27.27,0,0,1,.29-.25h7.46a.31.31,0,0,1,.32.25l6.51,19.36a.3.3,0,0,1,0,.29.28.28,0,0,1-.27.15h-6a.34.34,0,0,1-.2,0,.23.23,0,0,1,0-.2l-1.41-4.45ZM257.89,11c-.16-.5-.31-1-.44-1.49s-.28-1-.45-1.48a3.53,3.53,0,0,0-.35-1c-.12-.37-.24-.69-.34-1h0a1.22,1.22,0,0,0,0-.27h0v.47l-.23,1a2.67,2.67,0,0,1-.27.87h0c-.15.56-.27,1.06-.37,1.49A7.59,7.59,0,0,1,255,11Z"/><path class="cls-1" d="M287.12,19a.3.3,0,0,1-.2.3c-.42.15-.91.27-1.48.42s-1.21.3-1.88.42-1.36.25-2.11.32a19.73,19.73,0,0,1-2.17.12,17.63,17.63,0,0,1-5.45-.79,9.68,9.68,0,0,1-3.74-2.18,8.69,8.69,0,0,1-2.17-3.14,9.59,9.59,0,0,1-.75-3.81,10.21,10.21,0,0,1,1-4.55,9.51,9.51,0,0,1,2.65-3.32,12,12,0,0,1,4-2A17.58,17.58,0,0,1,279.7.13a18.81,18.81,0,0,1,4,.34,12.34,12.34,0,0,1,2.47.74.36.36,0,0,1,.18.43l-1.14,4.25s0,.15-.2.2a.32.32,0,0,1-.3,0,12.67,12.67,0,0,0-2.1-.62,15.12,15.12,0,0,0-3.15-.27,8.17,8.17,0,0,0-2.3.3,5.65,5.65,0,0,0-1.9.91A4,4,0,0,0,273.93,8a4.86,4.86,0,0,0-.49,2.25,5.26,5.26,0,0,0,.44,2.21,4.77,4.77,0,0,0,1.21,1.7A6.07,6.07,0,0,0,277,15.2a7,7,0,0,0,2.48.39h1a2.73,2.73,0,0,0,.7,0V13.12h-2.65c-.22,0-.32-.12-.32-.35V8.44c0-.25,0-.37.32-.37h8.32c.22,0,.32.12.32.37Z"/><path class="cls-1" d="M303.78,12.38c0,.24,0,.37-.32.37H296v2.57h8.42a.31.31,0,0,1,.32.27V20a.29.29,0,0,1-.24.34H290.22c-.23,0-.33-.12-.33-.34V.69c0-.24,0-.37.33-.37H304c.22,0,.35,0,.35.37V5c0,.22-.13.32-.35.32h-8v2.4h7.42a.29.29,0,0,1,.32.27.06.06,0,0,1,0,.06Z"/><path class="cls-2" d="M327.37,8.64l-8.62-5a.4.4,0,0,0-.34,0l-8.62,5"/><polygon class="cls-1" points="318.58 8.64 320.14 11.61 323.6 12.11 321.11 14.41 321.7 17.67 318.58 16.14 315.46 17.67 316.06 14.41 313.56 12.11 317.02 11.61 318.58 8.64"/></g></g></g></svg>